<svg width="32" height="32" viewBox="0 0 32 32" fill="none" xmlns="http://www.w3.org/2000/svg">
    <path fill-rule="evenodd" clip-rule="evenodd" d="M3.99992 13.9578L7.52016 11.0243L5.81301 8.97571L1.33325 12.7088V26.6667C1.33325 28.8758 3.12411 30.6667 5.33325 30.6667H26.6666C28.8757 30.6667 30.6666 28.8758 30.6666 26.6667V12.7088L26.1868 8.97571L24.4797 11.0243L27.9999 13.9578V26.6667C27.9999 27.403 27.403 28 26.6666 28H5.33325C4.59687 28 3.99992 27.403 3.99992 26.6667V13.9578Z" fill="#27A77A"/>
    <path d="M12 5.33334L16 2.66667L20 5.33334" stroke="#27A77A" stroke-width="2" stroke-linecap="round" stroke-linejoin="round"/>
    <path fill-rule="evenodd" clip-rule="evenodd" d="M4.81857 12.2809L15.1814 20.3408C15.6629 20.7153 16.3371 20.7153 16.8186 20.3408L27.1814 12.2809L28.8186 14.3858L18.4557 22.4458C17.0113 23.5692 14.9887 23.5692 13.5442 22.4458L3.1814 14.3858L4.81857 12.2809Z" fill="#27A77A"/>
    <path fill-rule="evenodd" clip-rule="evenodd" d="M5.33325 6.66667C5.33325 5.19391 6.52716 4 7.99992 4H23.9999C25.4727 4 26.6666 5.19391 26.6666 6.66667V16H23.9999V6.66667H7.99992V16H5.33325V6.66667Z" fill="#27A77A"/>
    <path fill-rule="evenodd" clip-rule="evenodd" d="M12 12C12 11.2636 12.597 10.6667 13.3333 10.6667H18.6667C19.403 10.6667 20 11.2636 20 12C20 12.7364 19.403 13.3333 18.6667 13.3333H13.3333C12.597 13.3333 12 12.7364 12 12Z" fill="#27A77A"/>
</svg>
