<svg width="32" height="32" viewBox="0 0 32 32" fill="none" xmlns="http://www.w3.org/2000/svg">
    <path fill-rule="evenodd" clip-rule="evenodd" d="M10.6667 11.5C10.6667 10.7636 11.2637 10.1667 12.0001 10.1667H29.0001C29.7365 10.1667 30.3334 10.7636 30.3334 11.5V28C30.3334 28.7364 29.7365 29.3334 29.0001 29.3334H7.50008C6.7637 29.3334 6.16675 28.7364 6.16675 28C6.16675 27.2636 6.7637 26.6667 7.50008 26.6667H27.6667V12.8334H12.0001C11.2637 12.8334 10.6667 12.2364 10.6667 11.5Z" fill="#27A77A"/>
    <path fill-rule="evenodd" clip-rule="evenodd" d="M1.66675 8.20852C1.66675 5.06502 4.3638 2.66669 7.50008 2.66669C10.6364 2.66669 13.3334 5.06502 13.3334 8.20852V23.5C13.3334 24.2364 12.7365 24.8334 12.0001 24.8334C11.2637 24.8334 10.6667 24.2364 10.6667 23.5V8.20852C10.6667 6.70319 9.33463 5.33335 7.50008 5.33335C5.66553 5.33335 4.33341 6.70319 4.33341 8.20852V23.5C4.33341 24.2364 3.73646 24.8334 3.00008 24.8334C2.2637 24.8334 1.66675 24.2364 1.66675 23.5V8.20852Z" fill="#27A77A"/>
    <path fill-rule="evenodd" clip-rule="evenodd" d="M7.50008 20.8334C5.67835 20.8334 4.33341 22.21 4.33341 23.75C4.33341 25.2901 5.67835 26.6667 7.50008 26.6667C9.32181 26.6667 10.6667 25.2901 10.6667 23.75C10.6667 22.21 9.32181 20.8334 7.50008 20.8334ZM1.66675 23.75C1.66675 20.5957 4.35125 18.1667 7.50008 18.1667C10.6489 18.1667 13.3334 20.5957 13.3334 23.75C13.3334 26.9044 10.6489 29.3334 7.50008 29.3334C4.35125 29.3334 1.66675 26.9044 1.66675 23.75Z" fill="#27A77A"/>
</svg>
