<svg width="32" height="32" viewBox="0 0 32 32" fill="none" xmlns="http://www.w3.org/2000/svg">
    <path fill-rule="evenodd" clip-rule="evenodd" d="M14.6667 15.0507L22.9002 10L14.6667 4.9493L14.6667 15.0507ZM24.2946 12.2731C25.991 11.2325 25.991 8.76757 24.2946 7.72695L16.0611 2.67624C14.2843 1.58628 12.0001 2.86481 12.0001 4.9493L12.0001 15.0507C12.0001 17.1352 14.2843 18.4137 16.0611 17.3238L24.2946 12.2731Z" fill="#27A77A"/>
    <path fill-rule="evenodd" clip-rule="evenodd" d="M13.3334 9.33331C14.0698 9.33331 14.6667 9.93027 14.6667 10.6666L14.6667 26.6666C14.6667 27.403 14.0698 28 13.3334 28C12.597 28 12.0001 27.403 12.0001 26.6666L12.0001 10.6666C12.0001 9.93027 12.597 9.33331 13.3334 9.33331Z" fill="#27A77A"/>
    <path fill-rule="evenodd" clip-rule="evenodd" d="M5.33325 28C5.33325 27.2636 5.93021 26.6667 6.66659 26.6667L25.3333 26.6667C26.0696 26.6667 26.6666 27.2636 26.6666 28C26.6666 28.7364 26.0696 29.3334 25.3332 29.3334L6.66658 29.3334C5.93021 29.3334 5.33325 28.7364 5.33325 28Z" fill="#27A77A"/>
</svg>
