<svg width="32" height="32" viewBox="0 0 32 32" fill="none" xmlns="http://www.w3.org/2000/svg">
    <path fill-rule="evenodd" clip-rule="evenodd" d="M0.466309 5.01678C0.466309 4.05032 1.24978 3.26685 2.21624 3.26685H15.9996C16.736 3.26685 17.333 3.8638 17.333 4.60018V27.4002C17.333 28.1366 16.736 28.7335 15.9996 28.7335H2.21624C1.24979 28.7335 0.466309 27.95 0.466309 26.9836V5.01678ZM3.13298 5.93351V26.0668H14.6663V5.93351H3.13298Z" fill="#27A77A"/>
    <path fill-rule="evenodd" clip-rule="evenodd" d="M14.6665 4.60018C14.6665 3.8638 15.2635 3.26685 15.9998 3.26685H29.9832C30.9497 3.26685 31.7332 4.05031 31.7332 5.01678V26.9836C31.7332 27.95 30.9497 28.7335 29.9832 28.7335H15.9998C15.2635 28.7335 14.6665 28.1366 14.6665 27.4002V4.60018ZM17.3332 5.93351V26.0668H29.0665V5.93351H17.3332Z" fill="#27A77A"/>
    <path fill-rule="evenodd" clip-rule="evenodd" d="M19.0664 8.80001C19.0664 8.06363 19.6634 7.46667 20.3997 7.46667H25.9997C26.7361 7.46667 27.3331 8.06363 27.3331 8.80001C27.3331 9.53639 26.7361 10.1333 25.9997 10.1333H20.3997C19.6634 10.1333 19.0664 9.53639 19.0664 8.80001Z" fill="#27A77A"/>
    <path fill-rule="evenodd" clip-rule="evenodd" d="M19.0664 12.6001C19.0664 11.8637 19.6634 11.2667 20.3997 11.2667H25.9997C26.7361 11.2667 27.3331 11.8637 27.3331 12.6001C27.3331 13.3364 26.7361 13.9334 25.9997 13.9334H20.3997C19.6634 13.9334 19.0664 13.3364 19.0664 12.6001Z" fill="#27A77A"/>
    <path fill-rule="evenodd" clip-rule="evenodd" d="M19.0664 16.6002C19.0664 15.8639 19.6634 15.2669 20.3997 15.2669H25.9997C26.7361 15.2669 27.3331 15.8639 27.3331 16.6002C27.3331 17.3366 26.7361 17.9336 25.9997 17.9336H20.3997C19.6634 17.9336 19.0664 17.3366 19.0664 16.6002Z" fill="#27A77A"/>
    <path fill-rule="evenodd" clip-rule="evenodd" d="M4.86694 8.60012C4.86694 7.86374 5.4639 7.26678 6.20028 7.26678H11.6003C12.3367 7.26678 12.9336 7.86374 12.9336 8.60012V14.0001C12.9336 14.7365 12.3367 15.3335 11.6003 15.3335H6.20028C5.4639 15.3335 4.86694 14.7365 4.86694 14.0001V8.60012ZM7.53361 9.93345V12.6668H10.2669V9.93345H7.53361Z" fill="#27A77A"/>
</svg>
