<svg width="32" height="32" viewBox="0 0 32 32" fill="none" xmlns="http://www.w3.org/2000/svg">
    <path fill-rule="evenodd" clip-rule="evenodd" d="M0 13.3333H29.3333C30.8061 13.3333 32 14.5273 32 16V22.6667C32 24.1394 30.8061 25.3333 29.3333 25.3333H0V13.3333ZM2.66667 16V22.6667H29.3333V16H2.66667Z" fill="#27A77A"/>
    <path fill-rule="evenodd" clip-rule="evenodd" d="M1.33333 29.3333C0.596954 29.3333 0 28.7364 0 28L0 6.66668C0 5.9303 0.596954 5.33334 1.33333 5.33334C2.06971 5.33334 2.66667 5.9303 2.66667 6.66668L2.66667 28C2.66667 28.7364 2.06971 29.3333 1.33333 29.3333Z" fill="#27A77A"/>
    <path fill-rule="evenodd" clip-rule="evenodd" d="M4 12C4 10.5273 5.19391 9.33334 6.66667 9.33334H10.6667C12.1394 9.33334 13.3333 10.5273 13.3333 12V13.3333C13.3333 14.8061 12.1394 16 10.6667 16H6.66667C5.19391 16 4 14.8061 4 13.3333V12ZM10.6667 12H6.66667V13.3333H10.6667V12Z" fill="#27A77A"/>
    <path fill-rule="evenodd" clip-rule="evenodd" d="M30.6666 29.3333C29.9302 29.3333 29.3333 28.7364 29.3333 28V22.6667C29.3333 21.9303 29.9302 21.3333 30.6666 21.3333C31.403 21.3333 31.9999 21.9303 31.9999 22.6667V28C31.9999 28.7364 31.403 29.3333 30.6666 29.3333Z" fill="#27A77A"/>
</svg>
