<svg width="24" height="25" viewBox="0 0 24 25" fill="none" xmlns="http://www.w3.org/2000/svg">
    <path fill-rule="evenodd" clip-rule="evenodd" d="M19 6.5H5C4.44772 6.5 4 6.94772 4 7.5V19.5C4 20.0523 4.44772 20.5 5 20.5H19C19.5523 20.5 20 20.0523 20 19.5V7.5C20 6.94771 19.5523 6.5 19 6.5ZM5 4.5C3.34315 4.5 2 5.84315 2 7.5V19.5C2 21.1569 3.34315 22.5 5 22.5H19C20.6569 22.5 22 21.1569 22 19.5V7.5C22 5.84315 20.6569 4.5 19 4.5H5Z" fill="#282A29"/>
    <path fill-rule="evenodd" clip-rule="evenodd" d="M21 11.5H3V9.5H21V11.5Z" fill="#282A29"/>
    <path fill-rule="evenodd" clip-rule="evenodd" d="M6 15.5C6 14.9477 6.44772 14.5 7 14.5H17C17.5523 14.5 18 14.9477 18 15.5C18 16.0523 17.5523 16.5 17 16.5H7C6.44772 16.5 6 16.0523 6 15.5Z" fill="#282A29"/>
    <path fill-rule="evenodd" clip-rule="evenodd" d="M7 8.5C6.44772 8.5 6 8.05228 6 7.5L6 3.5C6 2.94772 6.44772 2.5 7 2.5C7.55228 2.5 8 2.94772 8 3.5L8 7.5C8 8.05228 7.55228 8.5 7 8.5Z" fill="#282A29"/>
    <path fill-rule="evenodd" clip-rule="evenodd" d="M17 8.5C16.4477 8.5 16 8.05228 16 7.5L16 3.5C16 2.94772 16.4477 2.5 17 2.5C17.5523 2.5 18 2.94772 18 3.5L18 7.5C18 8.05228 17.5523 8.5 17 8.5Z" fill="#282A29"/>
</svg>
