<svg width="32" height="32" viewBox="0 0 32 32" fill="none" xmlns="http://www.w3.org/2000/svg">
    <g clip-path="url(#clip0_79_352)">
        <path fill-rule="evenodd" clip-rule="evenodd"
              d="M10.6667 16C10.6667 15.2636 11.2637 14.6667 12.0001 14.6667H20.0001C20.7365 14.6667 21.3334 15.2636 21.3334 16C21.3334 16.7364 20.7365 17.3333 20.0001 17.3333H12.0001C11.2637 17.3333 10.6667 16.7364 10.6667 16Z"
              fill="#27A77A"/>
        <path fill-rule="evenodd" clip-rule="evenodd"
              d="M1.33333 21.3333C0.596954 21.3333 -2.60937e-08 20.7364 -5.82819e-08 20L-4.07973e-07 12C-4.40161e-07 11.2636 0.596953 10.6667 1.33333 10.6667C2.06971 10.6667 2.66667 11.2636 2.66667 12L2.66667 20C2.66667 20.7364 2.06971 21.3333 1.33333 21.3333Z"
              fill="#27A77A"/>
        <path fill-rule="evenodd" clip-rule="evenodd"
              d="M6.66659 25.3333C5.93021 25.3333 5.33325 24.7364 5.33325 24L5.33325 8.00001C5.33325 7.26363 5.9302 6.66668 6.66658 6.66668C7.40296 6.66668 7.99992 7.26363 7.99992 8.00001L7.99992 24C7.99992 24.7364 7.40297 25.3333 6.66659 25.3333Z"
              fill="#27A77A"/>
        <path fill-rule="evenodd" clip-rule="evenodd"
              d="M25.3333 25.3333C24.597 25.3333 24 24.7364 24 24L24 8.00001C24 7.26363 24.597 6.66668 25.3333 6.66668C26.0697 6.66668 26.6667 7.26363 26.6667 8.00001L26.6667 24C26.6667 24.7364 26.0697 25.3333 25.3333 25.3333Z"
              fill="#27A77A"/>
        <path fill-rule="evenodd" clip-rule="evenodd"
              d="M30.6666 21.3333C29.9302 21.3333 29.3333 20.7364 29.3333 20L29.3333 12C29.3333 11.2636 29.9302 10.6667 30.6666 10.6667C31.403 10.6667 31.9999 11.2636 31.9999 12L31.9999 20C31.9999 20.7364 31.403 21.3333 30.6666 21.3333Z"
              fill="#27A77A"/>
    </g>
    <defs>
        <clipPath id="clip0_79_352">
            <rect width="32" height="32" fill="white"/>
        </clipPath>
    </defs>
</svg>
