<svg width="32" height="32" viewBox="0 0 32 32" fill="none" xmlns="http://www.w3.org/2000/svg">
    <path fill-rule="evenodd" clip-rule="evenodd" d="M8.4522 4.33259C9.0049 3.846 9.84742 3.89959 10.334 4.45229C10.9688 5.17329 11.7128 6.41166 11.9346 7.88754C12.1669 9.43274 11.8131 11.2005 10.2806 12.7478C9.41561 13.6211 9.24216 14.5772 9.37071 15.4903C9.50722 16.4601 9.99034 17.349 10.3783 17.8386C10.8356 18.4158 10.7385 19.2544 10.1613 19.7117C9.58414 20.169 8.74553 20.0719 8.28821 19.4947C7.67001 18.7145 6.94573 17.394 6.73008 15.8621C6.50648 14.2737 6.83611 12.436 8.38593 10.8713C9.26825 9.98044 9.41749 9.08158 9.2976 8.28392C9.16728 7.41695 8.7039 6.63627 8.3325 6.21441C7.84591 5.66171 7.8995 4.81919 8.4522 4.33259Z" fill="#27A77A"/>
    <path fill-rule="evenodd" clip-rule="evenodd" d="M15.1189 4.33259C15.6716 3.846 16.5142 3.89959 17.0008 4.45229C17.6355 5.17329 18.3795 6.41166 18.6014 7.88754C18.8336 9.43274 18.4798 11.2005 16.9473 12.7478C16.0824 13.6211 15.9089 14.5772 16.0375 15.4903C16.174 16.4601 16.6571 17.349 17.0451 17.8386C17.5024 18.4158 17.4052 19.2544 16.8281 19.7117C16.2509 20.169 15.4123 20.0719 14.955 19.4947C14.3368 18.7145 13.6125 17.394 13.3968 15.8621C13.1732 14.2737 13.5029 12.436 15.0527 10.8713C15.935 9.98044 16.0842 9.08158 15.9643 8.28392C15.834 7.41695 15.3707 6.63627 14.9993 6.21441C14.5127 5.66171 14.5662 4.81919 15.1189 4.33259Z" fill="#27A77A"/>
    <path fill-rule="evenodd" clip-rule="evenodd" d="M21.7857 4.33259C22.3384 3.846 23.1809 3.89959 23.6675 4.45229C24.3023 5.17329 25.0463 6.41166 25.2681 7.88754C25.5004 9.43274 25.1466 11.2005 23.6141 12.7478C22.7491 13.6211 22.5757 14.5772 22.7042 15.4903C22.8407 16.4601 23.3238 17.349 23.7118 17.8386C24.1691 18.4158 24.072 19.2544 23.4948 19.7117C22.9176 20.169 22.079 20.0719 21.6217 19.4947C21.0035 18.7145 20.2792 17.394 20.0636 15.8621C19.84 14.2737 20.1696 12.436 21.7194 10.8713C22.6017 9.98044 22.751 9.08158 22.6311 8.28392C22.5008 7.41695 22.0374 6.63627 21.666 6.21441C21.1794 5.66171 21.233 4.81919 21.7857 4.33259Z" fill="#27A77A"/>
    <path fill-rule="evenodd" clip-rule="evenodd" d="M2.66659 17.3333C3.40296 17.3333 3.99992 17.9303 3.99992 18.6666C3.99992 20.2234 5.05859 21.8606 7.25782 23.1802C9.43051 24.4838 12.5181 25.3333 15.9999 25.3333C19.4817 25.3333 22.5693 24.4838 24.742 23.1802C26.9412 21.8606 27.9999 20.2234 27.9999 18.6666C27.9999 17.9303 28.5969 17.3333 29.3333 17.3333C30.0696 17.3333 30.6666 17.9303 30.6666 18.6666C30.6666 21.5281 28.7405 23.8909 26.114 25.4668C23.461 27.0586 19.8819 28 15.9999 28C12.1179 28 8.53886 27.0586 5.88583 25.4668C3.25935 23.8909 1.33325 21.5281 1.33325 18.6666C1.33325 17.9303 1.93021 17.3333 2.66659 17.3333Z" fill="#27A77A"/>
</svg>
