<svg width="17" height="16" viewBox="0 0 17 16" fill="none" xmlns="http://www.w3.org/2000/svg">
    <path fill-rule="evenodd" clip-rule="evenodd" d="M8.50008 1.99999C5.18637 1.99999 2.50008 4.68628 2.50008 7.99999C2.50008 11.3137 5.18637 14 8.50008 14C11.8138 14 14.5001 11.3137 14.5001 7.99999C14.5001 7.6318 14.7986 7.33332 15.1667 7.33332C15.5349 7.33332 15.8334 7.6318 15.8334 7.99999C15.8334 12.0501 12.5502 15.3333 8.50008 15.3333C4.44999 15.3333 1.16675 12.0501 1.16675 7.99999C1.16675 3.9499 4.44999 0.666656 8.50008 0.666656C8.86827 0.666656 9.16675 0.965133 9.16675 1.33332C9.16675 1.70151 8.86827 1.99999 8.50008 1.99999Z" fill="white"/>
    <path fill-rule="evenodd" clip-rule="evenodd" d="M14.235 2.13468C14.5288 2.35658 14.5871 2.77465 14.3652 3.06846L8.82676 10.4018C8.69844 10.5717 8.4967 10.6701 8.28382 10.6666C8.07094 10.6631 7.87253 10.5581 7.74987 10.3841L5.28833 6.89204C5.0762 6.5911 5.14819 6.17518 5.44913 5.96304C5.75007 5.75091 6.16599 5.82291 6.37812 6.12385L8.31334 8.86924L13.3012 2.26489C13.5231 1.97108 13.9412 1.91278 14.235 2.13468Z" fill="white"/>
</svg>
