<svg width="11" height="12" viewBox="0 0 11 12" fill="none" xmlns="http://www.w3.org/2000/svg">
    <path d="M1.30482 0.861919C1.04447 0.601569 0.62236 0.601569 0.36201 0.861919C0.101661 1.12227 0.101661 1.54438 0.36201 1.80473L4.55727 5.99999L0.36201 10.1953C0.101661 10.4556 0.101661 10.8777 0.36201 11.1381C0.62236 11.3984 1.04447 11.3984 1.30482 11.1381L5.50008 6.9428L9.69534 11.1381C9.95569 11.3984 10.3778 11.3984 10.6382 11.1381C10.8985 10.8777 10.8985 10.4556 10.6382 10.1953L6.44289 5.99999L10.6382 1.80473C10.8985 1.54438 10.8985 1.12227 10.6382 0.861919C10.3778 0.60157 9.95569 0.60157 9.69534 0.861919L5.50008 5.05718L1.30482 0.861919Z" fill="white"/>
</svg>
