<svg width="32" height="32" viewBox="0 0 32 32" fill="none" xmlns="http://www.w3.org/2000/svg">
    <g clip-path="url(#clip0_79_293)">
        <path fill-rule="evenodd" clip-rule="evenodd" d="M24.0001 9.33334H6.66675V18.6667C6.66675 22.3486 9.65152 25.3333 13.3334 25.3333H17.3334C21.0153 25.3333 24.0001 22.3486 24.0001 18.6667V9.33334ZM5.33341 6.66667C4.59704 6.66667 4.00008 7.26363 4.00008 8.00001V18.6667C4.00008 23.8213 8.17876 28 13.3334 28H17.3334C22.4881 28 26.6667 23.8213 26.6667 18.6667V8.00001C26.6667 7.26363 26.0698 6.66667 25.3334 6.66667H5.33341Z" fill="#27A77A"/>
        <path fill-rule="evenodd" clip-rule="evenodd" d="M26.6667 12V17.3333C28.1395 17.3333 29.3334 16.1394 29.3334 14.6667C29.3334 13.1939 28.1395 12 26.6667 12ZM26.6667 9.33334H24.0001V20H26.6667C29.6123 20 32.0001 17.6122 32.0001 14.6667C32.0001 11.7212 29.6123 9.33334 26.6667 9.33334Z" fill="#27A77A"/>
        <path fill-rule="evenodd" clip-rule="evenodd" d="M28.0001 26.6667C28.0001 27.4031 27.4031 28 26.6667 28H4.00008C3.2637 28 2.66675 27.4031 2.66675 26.6667C2.66675 25.9303 3.2637 25.3333 4.00008 25.3333H26.6667C27.4031 25.3333 28.0001 25.9303 28.0001 26.6667Z" fill="#27A77A"/>
    </g>
    <defs>
        <clipPath id="clip0_79_293">
            <rect width="32" height="32" fill="white"/>
        </clipPath>
    </defs>
</svg>
